# xmcd
#
# Track frame offsets: 
#        150
#        3985
#        20290
#        26161
#        38701
#        40248
#        54021
#        61011
#        69635
#        72628
#        90199
#        96002
#        110280
#        116722
#        130803
#        134669
#        152045
#        155796
#        169008
#
# Disc length: 2353 seconds
#
# Revision: 0
# Processed by: cddbd v1.5.2PL0 Copyright (c) Steve Scherf et al.
# Submitted via: ExactAudioCopy v0.99pb5
#
DISCID=f5092f13
DTITLE=I Ragazzi Di Sipario - W Il Natale
DYEAR=2009
DGENRE=Pop
TTITLE0=Introduzione
TTITLE1=Buon Natale a te
TTITLE2=Intermezzo 1
TTITLE3=Cha cha cha dell'albero
TTITLE4=Intermezzo 2
TTITLE5=Eccomi qua
TTITLE6=Intermezzo 3
TTITLE7=Jingle bells
TTITLE8=Intermezzo 4
TTITLE9=La mia preghiera
TTITLE10=Intermezzo 5
TTITLE11=Nella notte di Natale
TTITLE12=Intermezzo 6
TTITLE13=Scende dal cielo
TTITLE14=Intermezzo 7
TTITLE15=W il Natale
TTITLE16=Intermezzo 8
TTITLE17=Tu scendi dalle stelle
TTITLE18=Finale
EXTD=
EXTT0=
EXTT1=
EXTT2=
EXTT3=
EXTT4=
EXTT5=
EXTT6=
EXTT7=
EXTT8=
EXTT9=
EXTT10=
EXTT11=
EXTT12=
EXTT13=
EXTT14=
EXTT15=
EXTT16=
EXTT17=
EXTT18=
PLAYORDER=
